<svg xmlns="http://www.w3.org/2000/svg" viewBox="0 0 800 600" role="img" aria-labelledby="title desc">
  <title id="title">Take me out panel</title>
  <desc id="desc">A rough comic punchline where one person is comedically taken out.</desc>
  <rect width="800" height="600" fill="#fff1f1"/>
  <rect x="18" y="18" width="764" height="564" fill="none" stroke="#211b17" stroke-width="16"/>
  <ellipse cx="250" cy="130" rx="150" ry="66" fill="#fff" stroke="#211b17" stroke-width="10"/>
  <path d="M318 184l34 56-74-42" fill="#fff" stroke="#211b17" stroke-width="10" stroke-linejoin="round"/>
  <text x="250" y="142" text-anchor="middle" font-family="Comic Sans MS, Verdana, sans-serif" font-size="56" font-weight="700" fill="#211b17">...</text>
  <path d="M504 300l110-58 34 50-120 50" fill="#ffd447" stroke="#211b17" stroke-width="10" stroke-linejoin="round"/>
  <text x="620" y="214" text-anchor="middle" font-family="Comic Sans MS, Verdana, sans-serif" font-size="54" font-weight="700" fill="#d6422b">POW</text>
  <circle cx="260" cy="350" r="56" fill="#ffd6b0" stroke="#211b17" stroke-width="10"/>
  <path d="M226 332l34 26 35-28" fill="none" stroke="#211b17" stroke-width="8" stroke-linecap="round"/>
  <path d="M315 394l-118 82" stroke="#211b17" stroke-width="12" stroke-linecap="round"/>
  <path d="M282 402l84 80" stroke="#211b17" stroke-width="12" stroke-linecap="round"/>
  <path d="M196 476l-82 8" stroke="#211b17" stroke-width="12" stroke-linecap="round"/>
  <path d="M196 476l-36 72" stroke="#211b17" stroke-width="12" stroke-linecap="round"/>
  <circle cx="538" cy="370" r="58" fill="#ffd6b0" stroke="#211b17" stroke-width="10"/>
  <circle cx="518" cy="355" r="7" fill="#211b17"/>
  <circle cx="560" cy="355" r="7" fill="#211b17"/>
  <path d="M516 392q26 20 52 0" fill="none" stroke="#211b17" stroke-width="8" stroke-linecap="round"/>
  <path d="M538 432v96" stroke="#211b17" stroke-width="12" stroke-linecap="round"/>
  <path d="M538 468l-84-52" stroke="#211b17" stroke-width="12" stroke-linecap="round"/>
  <path d="M538 528l-48 42" stroke="#211b17" stroke-width="12" stroke-linecap="round"/>
  <path d="M538 528l54 42" stroke="#211b17" stroke-width="12" stroke-linecap="round"/>
</svg>