<svg xmlns="http://www.w3.org/2000/svg" viewBox="0 0 800 600" role="img" aria-labelledby="title desc">
  <title id="title">Don't you know panel</title>
  <desc id="desc">A rough comic panel showing a person asking don't you know.</desc>
  <rect width="800" height="600" fill="#fff8e8"/>
  <rect x="18" y="18" width="764" height="564" fill="none" stroke="#211b17" stroke-width="16"/>
  <ellipse cx="500" cy="145" rx="210" ry="82" fill="#fff" stroke="#211b17" stroke-width="10"/>
  <path d="M390 205l-58 72 104-50" fill="#fff" stroke="#211b17" stroke-width="10" stroke-linejoin="round"/>
  <text x="500" y="130" text-anchor="middle" font-family="Comic Sans MS, Verdana, sans-serif" font-size="46" font-weight="700" fill="#211b17">don't you</text>
  <text x="500" y="182" text-anchor="middle" font-family="Comic Sans MS, Verdana, sans-serif" font-size="46" font-weight="700" fill="#211b17">know?</text>
  <circle cx="260" cy="265" r="64" fill="#ffd6b0" stroke="#211b17" stroke-width="10"/>
  <path d="M232 258q18 18 40 0" fill="none" stroke="#211b17" stroke-width="8" stroke-linecap="round"/>
  <circle cx="238" cy="245" r="7" fill="#211b17"/>
  <circle cx="286" cy="245" r="7" fill="#211b17"/>
  <path d="M213 218q42-74 108-16" fill="none" stroke="#211b17" stroke-width="12" stroke-linecap="round"/>
  <path d="M260 330v150" stroke="#211b17" stroke-width="12" stroke-linecap="round"/>
  <path d="M260 370l-96 52" stroke="#211b17" stroke-width="12" stroke-linecap="round"/>
  <path d="M260 370l102 48" stroke="#211b17" stroke-width="12" stroke-linecap="round"/>
  <path d="M260 480l-76 74" stroke="#211b17" stroke-width="12" stroke-linecap="round"/>
  <path d="M260 480l82 74" stroke="#211b17" stroke-width="12" stroke-linecap="round"/>
</svg>