<svg xmlns="http://www.w3.org/2000/svg" viewBox="0 0 800 600" role="img" aria-labelledby="title desc">
  <title id="title">You don't know panel</title>
  <desc id="desc">A rough comic panel showing a friend replying you don't know.</desc>
  <rect width="800" height="600" fill="#eef8ff"/>
  <rect x="18" y="18" width="764" height="564" fill="none" stroke="#211b17" stroke-width="16"/>
  <ellipse cx="300" cy="150" rx="220" ry="84" fill="#fff" stroke="#211b17" stroke-width="10"/>
  <path d="M410 205l52 76-98-54" fill="#fff" stroke="#211b17" stroke-width="10" stroke-linejoin="round"/>
  <text x="300" y="132" text-anchor="middle" font-family="Comic Sans MS, Verdana, sans-serif" font-size="44" font-weight="700" fill="#211b17">you don't</text>
  <text x="300" y="184" text-anchor="middle" font-family="Comic Sans MS, Verdana, sans-serif" font-size="44" font-weight="700" fill="#211b17">know</text>
  <circle cx="540" cy="280" r="64" fill="#ffd6b0" stroke="#211b17" stroke-width="10"/>
  <circle cx="516" cy="263" r="7" fill="#211b17"/>
  <circle cx="564" cy="263" r="7" fill="#211b17"/>
  <path d="M516 306q30-22 62 0" fill="none" stroke="#211b17" stroke-width="8" stroke-linecap="round"/>
  <path d="M495 220q58-48 110 4" fill="none" stroke="#211b17" stroke-width="12" stroke-linecap="round"/>
  <path d="M540 345v140" stroke="#211b17" stroke-width="12" stroke-linecap="round"/>
  <path d="M540 382l-104 36" stroke="#211b17" stroke-width="12" stroke-linecap="round"/>
  <path d="M540 382l102 48" stroke="#211b17" stroke-width="12" stroke-linecap="round"/>
  <path d="M540 485l-72 76" stroke="#211b17" stroke-width="12" stroke-linecap="round"/>
  <path d="M540 485l74 76" stroke="#211b17" stroke-width="12" stroke-linecap="round"/>
</svg>