<?xml version="1.0"?>
<svg xmlns:rdf="http://www.w3.org/1999/02/22-rdf-syntax-ns#" xmlns="http://www.w3.org/2000/svg" xmlns:cc="http://creativecommons.org/ns#" xmlns:dc="http://purl.org/dc/elements/1.1/" xmlns:svg="http://www.w3.org/2000/svg" id="svg3068" viewBox="0 0 230.31 194.88" version="1.1">
  <g id="layer1" transform="translate(0 -857.48)">
    <g id="g4238" transform="matrix(1.1614 0 0 1.1614 -142.62 495.09)">
      <path id="path4028-2" transform="matrix(.13707 0 0 .10669 221.55 398.71)" fill="#ffb00d" d="m389.72 444.51c0 116.29-77.79 210.56-173.75 210.56-95.959 0-173.75-94.269-173.75-210.56s77.79-210.56 173.75-210.56c95.529 0 173.14 93.458 173.75 209.22"/>
      <path id="path4028-2-2" transform="matrix(.16199 0 0 .12609 125.23 364.1)" fill="#ffb00d" d="m389.72 444.51c0 116.29-77.79 210.56-173.75 210.56-95.959 0-173.75-94.269-173.75-210.56s77.79-210.56 173.75-210.56c95.529 0 173.14 93.458 173.75 209.22"/>
      <path id="path3137" d="m246.42 475.62c-15.439-2.5152-29.916-18.305-25.097-34.504 3.2139-14.419 18.273-25.959 33.195-22.503 7.895-0.71059 16.916 7.0387 22.081 7.1714 5.2535-13.254 10.498-26.553 14.275-40.319-9.2248-5.7474-19.971-8.4037-29.638-13.323-12.979-5.676-25.871-11.557-38.61-17.756-8.2565 5.5056-7.1738 17.24-11.85 25.251-6.1568 15.429-12.101 31.009-16.125 47.13-3.9905 10.852-11.183 22.799-23.835 24.145-15.328 3.1224-33.233-3.6503-40.967-17.551-7.1358-16.365-0.37143-37.458 15.333-46.069 10.429-4.0685 23.394-2.9254 32.525 3.7515 4.6357 3.1224 13.153 15.908 14.087 3.2874 4.2724-20.387 13.906-39.176 21.748-58.376 3.55-6.7984 4.2033-15.402 9.9868-20.793 6.8923-2.5756 14.132 2.6693 20.827 4.5192 14.439 6.42 29.929 10.107 44.051 17.316 8.1045 4.6245 17.884 6.359 24.903 12.699 5.8833 7.4217-2.3914 15.635-3.9031 23.231-7.5174 21.39-13.401 43.368-22.408 64.216-4.4827 12.509-7.3883 27.253-18.76 35.528-6.5616 3.6333-14.529 4.664-21.818 2.9473zm16.281-9.718c8.488-7.0431 13.423-19.455 6.8086-29.416-5.7353-8.3947-17.958-9.3221-26.88-6.278-7.628 3.4445-13.042 11.786-12.399 20.227 5.0164 11.919 19.821 20.839 32.47 15.467zm-7.5454-3.053c-1.1011-9.6988-13.053-6.4885-18.591-9.7182 3.9627-9.2988 21.57-3.5006 22.97 5.9668 0.34891 1.5524-3.0104 5.8521-4.3793 3.7514zm3.7081-12.048c-6.7665-8.0686 11.432-9.836 6.5673-0.33055-1.3472 2.2507-4.8591 1.9636-6.5673 0.33055zm-11.981-8.5576c-6.5354-9.6379 12.726-2.8292 3.2599 1.1803-1.234 0.89195-2.4215-0.441-3.2599-1.1803zm-75.552-4.2197c9.2029-5.9579 14.755-19.224 8.5129-29.176-6.0026-13.685-26.715-18.246-36.9-6.6032-7.9339 7.129-8.5404 20.248-1.1442 27.974 6.6171 8.7557 19.458 11.987 29.531 7.8045zm-18.466-8.6602c-6.1663-1.2164-14.73-15.12-5.3762-14.69 3.6142 6.5368 11.12 10.976 17.358 10.267 1.5502 5.9503-8.5618 6.7331-11.981 4.4229zm11.823-11.347c-6.0453-8.1847 13.349-8.1832 4.3773-0.42223-1.2845 0.80804-2.9626 1.0219-4.3773 0.42223zm-13.742-8.5932c-4.439-7.9258 14.042-6.0719 4.4764 0.0996-1.3222 0.78984-3.2507 1.0911-4.4764-0.0996zm150.55-45.522c5.3534-10.55-11.288-11.634-17.425-15.706-14.733-5.364-29.782-10.189-43.261-18.377-9.5213-7.8004-18.636 11.591-6.2414 12.983 20.458 9.8811 41.822 17.679 62.727 26.524 2.9196 0.30622 2.9749-3.6852 4.2002-5.4241z"/>
    </g>
  </g>
  <metadata>
    <rdf:RDF>
      <cc:Work>
        <dc:format>image/svg+xml</dc:format>
        <dc:type rdf:resource="http://purl.org/dc/dcmitype/StillImage"/>
        <cc:license rdf:resource="http://creativecommons.org/licenses/publicdomain/"/>
        <dc:publisher>
          <cc:Agent rdf:about="http://openclipart.org/">
            <dc:title>Openclipart</dc:title>
          </cc:Agent>
        </dc:publisher>
        <dc:title>Two connected Happy Eighth Notes</dc:title>
        <dc:date>2011-03-29T21:36:56</dc:date>
        <dc:description>A smilie note designed for my sister's termpaper.</dc:description>
        <dc:source>http://openclipart.org/detail/129685/two-connected-happy-eighth-notes-by-rosievers</dc:source>
        <dc:creator>
          <cc:Agent>
            <dc:title>roSievers</dc:title>
          </cc:Agent>
        </dc:creator>
        <dc:subject>
          <rdf:Bag>
            <rdf:li>Music</rdf:li>
            <rdf:li>Note</rdf:li>
            <rdf:li>Notes</rdf:li>
            <rdf:li>Orange</rdf:li>
            <rdf:li>clip art</rdf:li>
            <rdf:li>clipart</rdf:li>
          </rdf:Bag>
        </dc:subject>
      </cc:Work>
      <cc:License rdf:about="http://creativecommons.org/licenses/publicdomain/">
        <cc:permits rdf:resource="http://creativecommons.org/ns#Reproduction"/>
        <cc:permits rdf:resource="http://creativecommons.org/ns#Distribution"/>
        <cc:permits rdf:resource="http://creativecommons.org/ns#DerivativeWorks"/>
      </cc:License>
    </rdf:RDF>
  </metadata>
</svg>
